<?xml version="1.0" standalone="no"?>
<!DOCTYPE svg PUBLIC "-//W3C//DTD SVG 20010904//EN"
 "http://www.w3.org/TR/2001/REC-SVG-20010904/DTD/svg10.dtd">
<svg version="1.0" xmlns="http://www.w3.org/2000/svg"
 width="841.000000pt" height="539.000000pt" viewBox="0 0 841.000000 539.000000"
 preserveAspectRatio="xMidYMid meet">

<g transform="translate(0.000000,539.000000) scale(0.100000,-0.100000)"
fill="#000000" stroke="none">
<path d="M4495 5278 c-16 -5 -51 -21 -78 -34 -27 -14 -65 -24 -90 -24 -28 0
-60 -11 -99 -33 -63 -35 -212 -134 -268 -178 -19 -15 -53 -35 -76 -44 -23 -9
-47 -28 -58 -45 -9 -17 -26 -35 -37 -40 -10 -6 -31 -30 -45 -52 -15 -23 -68
-85 -118 -137 -51 -53 -116 -127 -146 -166 -29 -38 -126 -144 -214 -235 -157
-161 -266 -296 -266 -330 0 -9 -35 -47 -77 -84 -43 -37 -101 -96 -128 -129
-43 -52 -69 -72 -165 -124 -63 -34 -122 -63 -131 -63 -9 0 -56 -18 -103 -41
-79 -37 -149 -87 -228 -164 -15 -15 -44 -36 -65 -47 -106 -58 -128 -68 -143
-68 -9 0 -31 -11 -50 -25 -19 -14 -39 -25 -46 -25 -7 0 -44 -13 -82 -30 -39
-17 -84 -30 -100 -30 -16 0 -40 -8 -53 -18 -33 -26 -83 -43 -149 -53 -30 -4
-75 -13 -100 -19 -25 -6 -65 -16 -90 -22 -62 -15 -516 -26 -560 -14 -40 11
-293 12 -360 1 -52 -8 -92 -41 -122 -100 -17 -33 -22 -64 -26 -182 -5 -169 9
-224 71 -285 34 -32 187 -118 213 -118 5 0 45 -18 88 -40 43 -22 89 -40 102
-40 25 0 137 -35 219 -68 28 -11 97 -34 155 -52 58 -17 116 -37 130 -45 14 -8
45 -24 70 -35 25 -12 52 -27 60 -34 8 -8 40 -21 70 -31 30 -10 67 -27 82 -39
27 -21 27 -22 27 -147 1 -120 0 -128 -29 -187 -28 -59 -30 -69 -30 -187 0 -72
4 -126 10 -130 6 -3 10 -19 10 -36 0 -16 4 -37 9 -47 5 -9 15 -30 22 -45 13
-28 177 -147 203 -147 6 0 54 -22 106 -49 154 -80 261 -124 320 -132 30 -3 82
-20 115 -35 60 -29 60 -29 310 -34 225 -5 263 -8 375 -33 71 -16 156 -43 197
-62 61 -29 75 -40 88 -72 24 -57 131 -162 205 -201 36 -19 108 -45 160 -58 52
-14 122 -38 155 -55 129 -66 389 -76 462 -19 14 11 44 25 66 31 23 6 59 23 82
38 45 31 124 66 171 75 18 4 37 17 44 31 13 25 14 25 178 25 173 0 226 -10
427 -80 202 -71 378 -120 429 -120 30 0 78 -5 106 -11 42 -9 57 -8 86 6 19 9
53 19 75 23 29 5 66 27 130 77 l89 70 -4 95 c-5 122 -13 164 -42 217 l-22 43
406 1 c396 1 474 5 557 29 54 16 87 23 267 58 25 5 63 19 83 31 20 11 42 21
49 21 7 0 25 13 41 30 16 16 36 30 44 30 9 0 35 18 59 40 24 22 49 43 55 47
23 15 65 89 82 145 10 31 28 67 41 79 13 12 24 26 24 31 0 5 13 26 28 46 28
37 52 94 52 124 0 9 7 29 15 44 8 16 15 37 15 46 0 9 4 20 10 23 6 3 10 24 10
45 0 21 5 42 10 45 6 4 10 58 10 131 0 103 -3 131 -20 167 -19 41 -138 177
-154 177 -5 0 -24 14 -44 31 -20 17 -50 37 -67 45 -17 7 -37 20 -45 28 -11 14
-7 16 33 16 47 0 114 29 130 56 4 8 15 14 22 14 8 0 15 6 15 13 0 7 13 26 30
42 16 16 30 34 30 39 0 6 10 22 23 36 13 14 30 40 38 58 7 17 17 32 21 32 5 0
8 9 8 20 0 11 5 20 10 20 6 0 10 15 10 34 0 19 4 37 9 40 5 3 12 27 16 53 4
27 11 53 16 60 12 13 5 369 -8 493 -6 47 -15 96 -20 110 -19 46 -33 96 -33
118 0 11 -4 24 -10 27 -5 3 -10 14 -10 23 0 17 -80 112 -94 112 -4 0 -33 21
-64 48 -61 51 -118 92 -127 92 -3 0 -29 17 -58 38 -29 22 -66 45 -84 51 -18 7
-38 19 -44 27 -6 8 -25 14 -42 14 -16 0 -98 24 -181 53 l-151 52 -275 0 c-220
0 -288 -4 -340 -17 -36 -9 -67 -14 -69 -12 -2 2 1 4 7 4 7 0 12 7 12 15 0 7 6
18 13 22 6 4 19 22 27 38 8 17 17 32 20 35 12 12 30 51 30 65 0 9 11 33 25 53
14 20 25 46 25 58 0 11 9 29 20 39 11 10 20 26 20 36 0 10 5 21 10 24 6 3 10
14 10 24 0 9 9 36 20 59 17 36 20 61 20 202 0 88 -4 168 -8 178 -50 103 -80
155 -92 160 -8 3 -31 16 -51 29 -20 13 -63 28 -95 34 -118 19 -149 26 -171 37
-28 15 -525 17 -553 2 -11 -6 -77 -13 -147 -16 -134 -6 -150 -9 -250 -56 -56
-26 -103 -67 -103 -89 0 -19 27 -8 52 21 14 17 35 30 47 30 11 0 23 5 26 10 3
6 15 10 26 10 10 0 19 5 19 10 0 6 9 10 19 10 11 0 22 4 25 8 3 5 66 12 141
15 75 4 145 11 155 17 28 15 505 13 533 -2 22 -11 53 -18 171 -37 32 -6 66
-17 75 -25 10 -9 22 -16 28 -16 28 0 103 -110 103 -151 0 -10 5 -19 10 -19 17
0 13 -305 -5 -340 -8 -16 -22 -50 -31 -77 -9 -26 -25 -59 -35 -72 -11 -13 -19
-32 -19 -43 0 -10 -11 -36 -25 -56 -14 -20 -25 -43 -25 -51 0 -25 -62 -125
-117 -188 -50 -57 -66 -93 -43 -93 6 0 20 9 32 20 12 11 29 20 39 20 9 0 30 7
45 15 16 8 43 15 61 15 17 0 35 5 38 10 4 6 102 10 263 10 l256 0 135 -45 c75
-25 144 -50 153 -55 10 -6 31 -10 47 -10 37 0 155 -61 196 -101 17 -16 39 -29
48 -29 10 0 20 -7 23 -15 4 -8 11 -15 17 -15 6 0 36 -22 66 -49 31 -26 66 -51
78 -55 12 -4 25 -16 28 -27 4 -11 17 -27 31 -35 14 -10 24 -26 24 -40 0 -13 5
-24 10 -24 6 0 10 -15 10 -34 0 -19 5 -38 10 -41 6 -3 10 -17 10 -29 0 -13 7
-37 15 -52 9 -18 15 -57 15 -101 0 -39 5 -75 10 -78 13 -8 13 -348 0 -389 -5
-17 -17 -58 -26 -91 -8 -33 -20 -68 -25 -77 -5 -10 -9 -23 -9 -29 0 -17 -88
-146 -144 -212 -54 -64 -75 -76 -151 -88 -93 -15 -115 -21 -166 -48 -50 -26
-63 -48 -24 -43 19 2 35 8 90 34 22 10 29 8 53 -10 15 -12 41 -28 57 -36 17
-7 43 -28 59 -45 17 -17 34 -31 39 -31 16 0 147 -140 147 -158 0 -10 5 -23 11
-29 13 -13 6 -218 -9 -283 -6 -25 -14 -58 -18 -75 -4 -16 -13 -39 -20 -50 -8
-11 -14 -29 -14 -40 0 -29 -24 -91 -42 -112 -52 -57 -108 -157 -108 -191 0
-25 -68 -122 -86 -122 -8 0 -17 -6 -20 -14 -6 -15 -144 -111 -204 -142 -34
-17 -61 -24 -165 -44 -80 -15 -137 -28 -180 -40 -86 -25 -155 -29 -564 -29
l-423 -1 -30 26 c-22 18 -34 22 -41 15 -14 -14 -63 -14 -87 -1 -13 7 -21 7
-25 0 -12 -19 17 -40 54 -40 20 0 45 -7 55 -15 11 -8 27 -15 35 -15 21 0 71
-50 71 -71 0 -10 5 -21 10 -24 6 -3 10 -21 10 -40 0 -19 5 -37 10 -40 14 -9
12 -147 -3 -166 -31 -41 -151 -129 -176 -129 -14 0 -45 -9 -69 -20 -36 -16
-51 -18 -85 -10 -23 5 -69 10 -101 10 -43 0 -108 15 -240 56 -100 31 -189 60
-198 65 -9 5 -72 25 -139 44 -119 34 -129 35 -295 35 l-173 0 -19 -27 c-14
-19 -38 -33 -79 -45 -32 -9 -85 -33 -118 -54 -33 -20 -81 -42 -106 -50 -26 -8
-52 -21 -59 -28 -42 -51 -316 -39 -424 19 -26 14 -92 37 -145 50 -143 37 -230
85 -302 166 -33 37 -64 81 -70 97 -16 47 -123 97 -289 135 -128 30 -147 31
-384 34 -138 2 -255 8 -260 12 -26 21 -143 61 -179 61 -38 0 -80 18 -442 196
-73 35 -144 91 -157 122 -6 15 -14 36 -18 47 -17 42 -23 83 -27 189 -4 113 -3
118 48 218 5 10 9 82 9 161 l0 143 -30 23 c-17 12 -58 31 -92 42 -34 11 -69
26 -77 33 -9 8 -36 24 -61 36 -25 11 -56 27 -70 34 -14 8 -72 28 -130 46 -132
40 -142 43 -216 74 -34 14 -94 33 -133 41 -40 8 -102 31 -140 50 -37 19 -71
35 -77 35 -23 0 -157 75 -192 108 -62 58 -75 106 -71 263 3 94 8 134 17 137 6
2 12 13 12 24 0 37 49 82 99 92 87 16 300 12 361 -7 30 -10 77 -21 104 -24 43
-5 48 -4 43 11 -6 14 11 16 183 16 115 0 191 4 195 10 3 5 21 10 40 10 19 0
36 4 39 9 6 9 36 15 129 26 62 8 149 37 173 57 11 10 33 18 48 18 15 0 59 14
98 30 38 17 76 30 83 30 7 0 28 11 47 23 19 13 47 27 63 31 16 4 59 25 96 47
37 21 70 39 74 39 3 0 18 14 32 30 13 17 30 30 35 30 6 0 37 25 69 55 32 30
64 55 72 55 7 0 38 13 68 30 30 16 61 30 70 30 8 0 38 12 65 26 27 14 80 42
118 61 67 33 165 123 166 150 0 7 10 17 21 24 44 23 144 124 156 157 22 60
107 164 264 323 85 86 172 180 194 210 22 29 76 92 121 139 89 94 155 173 173
207 6 12 19 24 29 27 10 3 26 20 36 37 10 17 36 38 60 49 22 9 58 32 80 49 21
17 44 31 51 31 6 0 22 12 36 26 13 14 45 37 71 50 26 13 49 28 53 34 15 24
106 60 150 60 33 0 55 7 78 24 18 13 48 27 67 31 61 13 282 17 293 6 6 -6 21
-11 33 -11 13 0 25 -4 28 -9 3 -5 23 -12 43 -16 21 -4 54 -21 73 -38 20 -18
50 -43 68 -56 52 -39 61 -70 64 -220 2 -97 7 -136 16 -139 20 -6 17 280 -4
320 -33 64 -135 142 -221 169 -37 11 -76 25 -85 30 -23 12 -264 10 -303 -3z"/>
<path d="M4183 3809 c-18 -12 -33 -25 -33 -29 0 -5 -10 -8 -22 -7 -16 1 -38
-14 -70 -49 -45 -48 -60 -78 -147 -289 -13 -34 -16 -84 -16 -320 l0 -280 34
-75 c19 -41 46 -86 61 -100 73 -66 110 -90 139 -90 17 0 54 -9 83 -20 41 -15
77 -20 161 -20 113 0 143 9 232 69 36 25 128 131 161 187 37 63 65 217 75 414
5 96 12 204 15 239 6 70 -4 118 -39 189 -41 81 -143 166 -211 176 -25 4 -48
11 -51 17 -4 5 -79 9 -173 9 -152 0 -170 -2 -199 -21z m-3 -62 c0 -2 -10 -12
-22 -23 l-23 -19 19 23 c18 21 26 27 26 19z m511 -24 c13 -16 12 -17 -3 -4
-17 13 -22 21 -14 21 2 0 10 -8 17 -17z m-587 -25 c-4 -13 -10 -132 -11 -266
-4 -231 -3 -244 17 -272 11 -15 20 -35 20 -43 0 -8 14 -26 32 -41 26 -21 42
-26 90 -26 58 0 58 0 58 -30 0 -17 -9 -48 -20 -69 -27 -54 -50 -123 -44 -133
3 -4 12 -8 20 -8 8 0 14 -10 14 -24 0 -13 7 -29 15 -36 8 -7 15 -19 15 -26 0
-8 5 -14 10 -14 6 0 10 -6 10 -12 0 -7 17 -31 37 -53 21 -22 43 -50 50 -62 12
-23 12 -23 -67 -23 -56 0 -94 6 -130 20 -28 11 -63 20 -78 20 -36 0 -141 83
-164 130 -56 114 -58 126 -58 373 0 162 4 249 14 287 21 83 104 271 133 303
33 33 48 35 37 5z m703 -630 c-3 -8 -6 -5 -6 6 -1 11 2 17 5 13 3 -3 4 -12 1
-19z m-76 -286 c-5 -10 -18 -25 -27 -33 -11 -9 -9 -2 6 19 26 35 36 42 21 14z
m-400 -19 c13 -16 12 -17 -3 -4 -17 13 -22 21 -14 21 2 0 10 -8 17 -17z m359
-36 c0 -2 -15 -16 -32 -33 l-33 -29 29 33 c28 30 36 37 36 29z"/>
<path d="M5295 3800 c-17 -5 -52 -32 -79 -59 -48 -48 -49 -52 -73 -168 -23
-107 -25 -147 -30 -437 l-5 -318 25 -27 c13 -14 34 -44 46 -66 30 -54 80 -80
254 -130 108 -31 249 -35 300 -8 61 31 86 56 108 107 12 28 35 71 51 94 35 51
103 218 119 291 6 30 9 127 7 238 -3 179 -5 190 -28 228 -63 102 -107 141
-254 224 l-61 35 -175 3 c-96 1 -189 -2 -205 -7z m56 -46 c-12 -15 -21 -34
-21 -43 0 -10 -4 -21 -9 -26 -10 -10 -16 -94 -27 -348 -5 -126 -4 -142 15
-183 12 -24 21 -59 21 -78 0 -30 5 -37 33 -50 17 -8 55 -17 82 -18 l50 -3 -2
-60 c-1 -33 -5 -88 -8 -121 -6 -56 -5 -63 17 -80 13 -11 34 -35 47 -54 13 -19
36 -47 49 -62 l26 -28 -47 0 c-46 0 -161 27 -242 57 -81 31 -110 51 -135 96
-14 25 -33 54 -43 64 -15 18 -17 47 -17 289 0 246 2 283 26 414 14 79 29 152
35 161 14 26 89 87 113 92 56 11 59 9 37 -19z m69 13 c0 -2 -15 -16 -32 -33
l-33 -29 29 33 c28 30 36 37 36 29z m291 -24 c13 -16 12 -17 -3 -4 -10 7 -18
15 -18 17 0 8 8 3 21 -13z m64 -33 c10 -11 16 -20 13 -20 -3 0 -13 9 -23 20
-10 11 -16 20 -13 20 3 0 13 -9 23 -20z m86 -57 c13 -16 12 -17 -3 -4 -10 7
-18 15 -18 17 0 8 8 3 21 -13z m101 -118 c11 -21 10 -20 -37 35 l-30 35 28
-25 c16 -14 33 -34 39 -45z m25 -77 c-3 -8 -6 -5 -6 6 -1 11 2 17 5 13 3 -3 4
-12 1 -19z m0 -350 c-3 -8 -6 -5 -6 6 -1 11 2 17 5 13 3 -3 4 -12 1 -19z
m-149 -353 c-6 -14 -13 -23 -15 -21 -5 5 15 46 22 46 3 0 -1 -11 -7 -25z m-58
-99 c0 -2 -8 -10 -17 -17 -16 -13 -17 -12 -4 4 13 16 21 21 21 13z"/>
<path d="M4945 2099 c-324 -7 -314 -6 -601 -69 -54 -12 -202 -63 -245 -85 -19
-10 -84 -69 -145 -131 -61 -63 -115 -114 -120 -114 -5 0 -21 -16 -36 -34 -22
-27 -28 -46 -28 -82 0 -49 10 -64 84 -119 41 -31 54 -44 58 -57 4 -10 123 -12
584 -10 330 2 583 8 589 13 5 5 164 9 365 9 195 0 436 5 536 10 160 8 191 12
265 38 131 46 184 71 215 103 27 29 29 35 28 112 -1 95 -10 136 -34 157 -9 8
-27 30 -39 47 -12 18 -34 36 -49 40 -15 3 -36 12 -47 19 -11 6 -40 15 -65 19
-25 4 -61 15 -80 25 -19 9 -53 20 -75 24 -22 4 -100 27 -173 52 l-133 44 -272
-2 c-150 -1 -411 -5 -582 -9z m342 -25 c-3 -3 -12 -4 -19 -1 -8 3 -5 6 6 6 11
1 17 -2 13 -5z m-524 -11 c-7 -2 -19 -2 -25 0 -7 3 -2 5 12 5 14 0 19 -2 13
-5z m-226 -29 c-3 -3 -12 -4 -19 -1 -8 3 -5 6 6 6 11 1 17 -2 13 -5z m-457
-137 c0 -2 -10 -12 -22 -23 l-23 -19 19 23 c18 21 26 27 26 19z m2310 -22 c13
-14 21 -25 18 -25 -2 0 -15 11 -28 25 -13 14 -21 25 -18 25 2 0 15 -11 28 -25z
m-2400 -68 c0 -2 -12 -14 -27 -28 l-28 -24 24 28 c23 25 31 32 31 24z m-60
-70 c0 -2 -10 -12 -22 -23 l-23 -19 19 23 c18 21 26 27 26 19z m1520 -45 c0
-5 57 -12 128 -15 128 -5 210 -20 247 -43 11 -6 35 -15 53 -19 17 -4 32 -11
32 -16 0 -5 6 -9 13 -9 12 0 108 -57 134 -80 7 -5 24 -15 38 -22 l27 -12 -24
-9 c-13 -5 -243 -11 -513 -14 -269 -3 -497 -9 -505 -13 -8 -4 -267 -9 -575
-11 l-560 -3 -45 42 c-25 23 -48 42 -52 42 -16 0 -48 45 -48 67 0 13 14 39 32
58 28 32 36 35 87 35 31 1 70 7 86 15 24 11 160 14 738 14 389 1 707 -3 707
-7z m561 -109 c13 -16 12 -17 -3 -4 -17 13 -22 21 -14 21 2 0 10 -8 17 -17z
m166 -109 c-3 -3 -12 -4 -19 -1 -8 3 -5 6 6 6 11 1 17 -2 13 -5z"/>
</g>
</svg>
